<svg width="1100" height="620" viewBox="0 0 1100 620" fill="none" xmlns="http://www.w3.org/2000/svg">
  <rect width="1100" height="620" rx="24" fill="#F8FAFC"/>
  <rect x="36" y="32" width="1028" height="556" rx="20" fill="#FFFFFF" stroke="#CBD5E1"/>
  <text x="70" y="86" fill="#0F172A" font-family="Inter, Arial" font-size="28" font-weight="800">Excel Business Dashboard Preview</text>
  <text x="70" y="118" fill="#64748B" font-family="Inter, Arial" font-size="15">Sample sales analytics view showing KPI cards, segment comparison, and recommendation notes.</text>
  <rect x="70" y="154" width="214" height="112" rx="16" fill="#DCFCE7"/>
  <text x="96" y="196" fill="#166534" font-family="Inter, Arial" font-size="16" font-weight="700">Revenue</text>
  <text x="96" y="238" fill="#166534" font-family="Inter, Arial" font-size="34" font-weight="800">£42.8k</text>
  <rect x="316" y="154" width="214" height="112" rx="16" fill="#DBEAFE"/>
  <text x="342" y="196" fill="#1E3A8A" font-family="Inter, Arial" font-size="16" font-weight="700">Orders</text>
  <text x="342" y="238" fill="#1E3A8A" font-family="Inter, Arial" font-size="34" font-weight="800">1,248</text>
  <rect x="562" y="154" width="214" height="112" rx="16" fill="#FEF3C7"/>
  <text x="588" y="196" fill="#92400E" font-family="Inter, Arial" font-size="16" font-weight="700">Avg Order</text>
  <text x="588" y="238" fill="#92400E" font-family="Inter, Arial" font-size="34" font-weight="800">£34.3</text>
  <rect x="808" y="154" width="214" height="112" rx="16" fill="#EDE9FE"/>
  <text x="834" y="196" fill="#4C1D95" font-family="Inter, Arial" font-size="16" font-weight="700">Top Segment</text>
  <text x="834" y="238" fill="#4C1D95" font-family="Inter, Arial" font-size="34" font-weight="800">Retail</text>
  <rect x="70" y="306" width="520" height="210" rx="16" fill="#F8FAFC" stroke="#E2E8F0"/>
  <text x="96" y="346" fill="#0F172A" font-family="Inter, Arial" font-size="18" font-weight="800">Monthly Revenue Trend</text>
  <path d="M112 456C176 430 232 438 292 392C356 344 418 368 492 318" stroke="#0F766E" stroke-width="4" fill="none" stroke-linecap="round"/>
  <line x1="112" y1="474" x2="540" y2="474" stroke="#CBD5E1"/>
  <rect x="628" y="306" width="394" height="210" rx="16" fill="#F8FAFC" stroke="#E2E8F0"/>
  <text x="654" y="346" fill="#0F172A" font-family="Inter, Arial" font-size="18" font-weight="800">Business Recommendation</text>
  <text x="654" y="390" fill="#334155" font-family="Inter, Arial" font-size="15">Focus promotion on the highest value segment,</text>
  <text x="654" y="418" fill="#334155" font-family="Inter, Arial" font-size="15">then monitor order value and repeat purchase rate.</text>
</svg>
